<svg id="Layer_1" data-name="Layer 1" xmlns="http://www.w3.org/2000/svg" viewBox="0 0 47.94 55.07"><title>BeastSaber Logo</title><path d="M96.53,121.46l-4.73-2.38-.41-.21a.38.38,0,0,1-.22-.35v-7.79a.37.37,0,0,1,.19-.33.39.39,0,0,1,.38,0l1.08.55L103,116l.41.2a.37.37,0,0,1,.21.35v12a.38.38,0,0,1-.38.38h-1.5a.39.39,0,0,1-.39-.38V118a.38.38,0,0,0-.21-.34L94,114.06a.39.39,0,0,0-.38,0,.37.37,0,0,0-.19.33v2.72a.38.38,0,0,0,.22.35l3.89,2a.39.39,0,0,1,.17.52l-.67,1.33a.4.4,0,0,1-.52.18m26.06-2,3.89-2a.38.38,0,0,0,.22-.35v-2.72a.39.39,0,0,0-.56-.35L119,117.64a.38.38,0,0,0-.21.34v10.64a.39.39,0,0,1-.39.38h-1.49a.38.38,0,0,1-.39-.38v-12a.39.39,0,0,1,.21-.35l.41-.2,10.15-5.11,1.09-.55a.39.39,0,0,1,.56.35v7.79a.38.38,0,0,1-.22.35l-.41.21-4.73,2.38a.4.4,0,0,1-.52-.18l-.67-1.33A.39.39,0,0,1,122.59,119.43Zm-26.06,22.9L91.8,140l-.41-.21a.36.36,0,0,1-.22-.34V128.08a.4.4,0,0,1,.39-.39h1.5a.39.39,0,0,1,.38.39V138a.38.38,0,0,0,.22.34l3.89,2a.38.38,0,0,1,.17.52l-.67,1.33A.39.39,0,0,1,96.53,142.33Zm26.06-2,3.89-2a.38.38,0,0,0,.22-.34v-9.93a.39.39,0,0,1,.38-.39h1.5a.4.4,0,0,1,.39.39V139.4a.36.36,0,0,1-.22.34l-.41.21-4.73,2.38a.39.39,0,0,1-.52-.17l-.67-1.33A.39.39,0,0,1,122.59,140.31Zm-24.07-13v7.91a.4.4,0,0,1-.39.39H96.64a.39.39,0,0,1-.39-.39v-7a.37.37,0,0,0-.21-.34l-9.32-4.69-.41-.21a.38.38,0,0,1-.21-.34V97.37a.39.39,0,0,1,.18-.33.37.37,0,0,1,.38,0l1.09.55,14.54,7.31a.34.34,0,0,0,.34,0l6.93-3.48.34-.17a.36.36,0,0,1,.35,0l.33.17,6.93,3.48a.36.36,0,0,0,.35,0l14.54-7.31,1.08-.55a.37.37,0,0,1,.38,0,.37.37,0,0,1,.18.33v25.29a.38.38,0,0,1-.21.34l-.41.21-9.31,4.69a.36.36,0,0,0-.22.34v7a.39.39,0,0,1-.39.39H122a.4.4,0,0,1-.39-.39v-8.37a.38.38,0,0,1,.22-.35l.41-.21,9.31-4.68a.39.39,0,0,0,.21-.35V101a.38.38,0,0,0-.18-.33.39.39,0,0,0-.38,0L119,106.83a.37.37,0,0,0-.21.34v6.55a.4.4,0,0,1-.39.39h-1.49a.39.39,0,0,1-.39-.39v-6.55a.36.36,0,0,0-.22-.34l-4.56-2.3a.39.39,0,0,0-.38,0,.39.39,0,0,0-.18.33v43.49a.37.37,0,0,0,.18.33.39.39,0,0,0,.38,0l4.56-2.3a.38.38,0,0,0,.22-.35V135.28a.38.38,0,0,1,.39-.39h1.49a.39.39,0,0,1,.39.39v12.17a.38.38,0,0,1-.22.35l-.41.21-7.61,3.83-.33.17a.43.43,0,0,1-.35,0l-.34-.17L102,148l-.41-.21a.38.38,0,0,1-.22-.35V135.28a.39.39,0,0,1,.39-.39h1.5a.38.38,0,0,1,.38.39v10.78a.38.38,0,0,0,.22.35l4.56,2.3a.39.39,0,0,0,.38,0,.37.37,0,0,0,.19-.33V104.87a.4.4,0,0,0-.19-.33.39.39,0,0,0-.38,0l-4.56,2.3a.36.36,0,0,0-.22.34v6.55a.39.39,0,0,1-.38.39h-1.5a.4.4,0,0,1-.39-.39v-6.55a.37.37,0,0,0-.21-.34L88.93,100.7a.39.39,0,0,0-.38,0,.4.4,0,0,0-.18.33v20.22a.39.39,0,0,0,.21.35l9.31,4.68.42.21a.39.39,0,0,1,.21.35Z" transform="translate(-86.1 -96.98)"/></svg>