<svg id="Layer_1" data-name="Layer 1" xmlns="http://www.w3.org/2000/svg" viewBox="0 0 124.9 147.85"><title>BeatdropBlack</title><path d="M184,128.62c-.16-11.83-6-26.31-17.59-38.39-4.85-5-9.87-9.92-14.82-14.87-8.13-8.12-16.21-16.3-24.42-24.35-4.56-4.47-10.89-3.2-12.25,2.31-.88,3.54.88,6,3.26,8.36,13,12.92,26.14,25.7,38.81,38.94a48,48,0,0,1,2,63.91,48.59,48.59,0,0,1-81.71-51c4.51-9.82,4.46-9.77,12-2.34,2.06,2,3.15,3.45,1.51,6.69-8.34,16.47-3,35.49,12.22,45.14a34.76,34.76,0,0,0,45.51-7.53c11.23-13.86,10.23-33.34-2.49-46.4-6.05-6.21-12.23-12.28-18.4-18.36-4-3.89-7.83-4.27-10.93-1.2s-2.65,7.25,1,11c6.1,6.16,12.31,12.2,18.38,18.38,5.9,6,7.64,13.23,5.12,21.18-2.67,8.45-8.81,13.17-17.55,14.21a20.48,20.48,0,0,1-20.45-10.67c-4.06-7.48-3.12-16.45,2.45-23.39,4.43-5.52,4.36-7.85-.55-12.8S95,97.28,90,92.2c-6.67-6.65-9.57-6.5-15.82.78a62.47,62.47,0,0,0,65,100.6C165.85,185.73,184.05,161.38,184,128.62Zm-75.13-54a7,7,0,0,0-7.09-6.79A6.91,6.91,0,1,0,102,81.65a7,7,0,0,0,6.88-7Z" transform="translate(-59.09 -48.3)"/><path d="M184,128.62c0,32.76-18.17,57.11-44.86,65A62.47,62.47,0,0,1,74.13,93c6.25-7.28,9.15-7.43,15.82-.78,5,5,10.16,10,15.21,15.13s5,7.28.55,12.8c-5.57,6.94-6.51,15.91-2.45,23.39a20.48,20.48,0,0,0,20.45,10.72c8.74-1,14.88-5.76,17.55-14.21,2.52-7.95.78-15.18-5.12-21.18-6.07-6.18-12.28-12.22-18.38-18.38-3.69-3.73-4-8-1-11s7-2.69,10.93,1.2c6.17,6.08,12.35,12.15,18.4,18.36,12.72,13.06,13.72,32.54,2.49,46.4A34.76,34.76,0,0,1,103,163c-15.21-9.69-20.52-28.69-12.18-45.14,1.64-3.24.55-4.66-1.51-6.69-7.53-7.43-7.48-7.48-12,2.34A48.59,48.59,0,0,0,159,164.53a48,48,0,0,0-2-63.91c-12.67-13.24-25.82-26-38.81-38.94-2.38-2.37-4.14-4.82-3.26-8.36,1.36-5.51,7.69-6.78,12.25-2.31,8.21,8,16.29,16.23,24.42,24.35,4.95,5,10,9.83,14.82,14.87C178.05,102.28,183.86,116.79,184,128.62Z" transform="translate(-59.09 -48.3)"/><path d="M108.89,74.65a7,7,0,0,1-6.85,7,6.91,6.91,0,1,1-.24-13.82A7,7,0,0,1,108.89,74.65Z" transform="translate(-59.09 -48.3)"/></svg>