<?xml version="1.0" encoding="UTF-8"?>
<svg xmlns="http://www.w3.org/2000/svg" xmlns:xlink="http://www.w3.org/1999/xlink" id="Layer_1" data-name="Layer 1" viewBox="0 0 1041.45 1012.72">
  <defs>
    <style>.cls-1{fill:url(#linear-gradient);}.cls-2{fill:url(#linear-gradient-2);}.cls-3{fill:url(#linear-gradient-3);}.cls-4{fill:url(#linear-gradient-4);}.cls-5{fill:url(#linear-gradient-5);}.cls-6{fill:url(#linear-gradient-6);}.cls-7{fill:url(#linear-gradient-7);}.cls-8{fill:url(#linear-gradient-8);}</style>
    <linearGradient id="linear-gradient" x1="779.33" y1="631.12" x2="2105.5" y2="568.4" gradientTransform="translate(2378.67 1453.14) rotate(180)" gradientUnits="userSpaceOnUse"><stop offset="0" stop-color="#fff"></stop><stop offset="0.5" stop-color="#fff"></stop><stop offset="1" stop-color="#fff"></stop></linearGradient><linearGradient id="linear-gradient-2" x1="583.98" y1="877.79" x2="1894.23" y2="815.82" gradientTransform="matrix(1, 0, 0, 1, 0, 0)" xlink:href="#linear-gradient"></linearGradient><linearGradient id="linear-gradient-3" x1="583.99" y1="877.93" x2="1894.24" y2="815.96" gradientTransform="matrix(1, 0, 0, 1, 0, 0)" xlink:href="#linear-gradient"></linearGradient><linearGradient id="linear-gradient-4" x1="583.68" y1="871.46" x2="1893.93" y2="809.49" gradientTransform="matrix(1, 0, 0, 1, 0, 0)" xlink:href="#linear-gradient"></linearGradient><linearGradient id="linear-gradient-5" x1="584.88" y1="896.77" x2="1895.13" y2="834.8" gradientTransform="matrix(1, 0, 0, 1, 0, 0)" xlink:href="#linear-gradient"></linearGradient><linearGradient id="linear-gradient-6" x1="583.07" y1="858.58" x2="1893.32" y2="796.61" gradientTransform="matrix(1, 0, 0, 1, 0, 0)" xlink:href="#linear-gradient"></linearGradient><linearGradient id="linear-gradient-7" x1="584.59" y1="890.7" x2="1894.84" y2="828.73" gradientTransform="matrix(1, 0, 0, 1, 0, 0)" xlink:href="#linear-gradient"></linearGradient><linearGradient id="linear-gradient-8" x1="585.08" y1="901" x2="1895.33" y2="839.03" gradientTransform="matrix(1, 0, 0, 1, 0, 0)" xlink:href="#linear-gradient"></linearGradient></defs><title>BSMG Logo</title><g id="Layer_2" data-name="Layer 2"><g id="Layer_1-2" data-name="Layer 1-2"><path class="cls-1" d="M892.6,543.24a5.76,5.76,0,0,1,5.81,5.71V893.76a5.7,5.7,0,0,1-1.67,4.1,5.86,5.86,0,0,1-4,1.66,5.76,5.76,0,0,1-5.77-5.76V549a5.66,5.66,0,0,1,5.62-5.71h.05Zm14.29-9.53V924.34H860.68V533.71a23.1,23.1,0,0,1,46.16-2.1,18.39,18.39,0,0,1,0,2.1Zm1.43-24.49A34.48,34.48,0,0,0,884.12,499a35.44,35.44,0,0,0-34.63,34.63V926a11.38,11.38,0,0,0-6,9.53v234.62a23.1,23.1,0,0,0,23.06,23.1h34.63a23.11,23.11,0,0,0,23.11-23.1h0V935.49a11.4,11.4,0,0,0-5.77-9.53V533.61a34.63,34.63,0,0,0-10.14-24.48Zm363.48,673.85a34.41,34.41,0,0,0,24.49,10.14,35.43,35.43,0,0,0,34.58-34.63V766.33a11.48,11.48,0,0,0,5.58-9.53V522.18a23.06,23.06,0,0,0-23-23.1h-34.68a23.1,23.1,0,0,0-23.06,23.1V756.8a11.29,11.29,0,0,0,5.76,9.53v392.35a34.25,34.25,0,0,0,10.15,24.48Z" transform="translate(-697.97 -344.59)"></path>
    <path class="cls-2" d="M1201.44,851.08V417.57a124.47,124.47,0,0,0-1.57-26c-6.1-29.35-27.11-48.88-49-46.78-23.48,2.43-41.87,25.72-43.39,55v7.14q0,444.14.38,888.27a85.08,85.08,0,0,0,9.53,38.44c16.53,30.78,56.11,31.35,72.69.62a100,100,0,0,0,11-45.21C1201.77,1143.19,1201.44,997.14,1201.44,851.08Zm-139.53,1.09c0-41.3.38-82.6,0-123.86-.48-39.11-19.06-64.93-45.59-64.74S971.2,689.49,971,728.69q-.72,122.63,0,245.29c.28,39.69,19,64.55,45.68,64.41s44.73-25,45.21-64.79C1062.29,933.11,1061.91,892.62,1061.91,852.17Zm448.65-2.95h1.19c0,47.64-1.14,95.27.48,142.91.91,26.44,18.77,44.4,39.92,46.26s39-13.67,45.5-40.21a101.24,101.24,0,0,0,3.24-23.43c0-82.56.47-165.12,0-247.72,0-36.88-19.06-62.6-44.78-63.41s-44.69,23.82-45.36,61.93C1510,766.61,1510.56,807.92,1510.56,849.22Zm-722,1.43h-.62c0-46.07.9-92.14-.33-138.15-.67-26.35-19.06-46.83-40.45-48.83-19.86-1.91-38.87,14.91-45.21,40.87a112.15,112.15,0,0,0-3.62,25.77q-.37,121.49,0,243a102,102,0,0,0,4.77,30.34c6.57,20.35,19,35.59,42.87,34.49s34.87-17.19,40.49-37.53A108.08,108.08,0,0,0,788.65,972C788.84,931.63,788.56,891.14,788.56,850.65Zm675.22.9h-.23c0-28.58,1.09-57.16-.29-85.46-1.29-26.25-21.68-47.64-43.54-49.12-20.3-1.23-40,14.82-45.5,40.74a267.12,267.12,0,0,0-3.86,51.68c-.47,39.59-1.19,79.18.24,118.72,1.24,33.92,23.3,58.26,48.5,57.16s44.3-26,44.64-60.26c.23-24.34,0-48.92,0-73.46Zm275.64-2.47c.24-34.16-20.34-61.32-46.54-61.36S1645.76,815,1646,848.84s22.53,61.5,47.64,60.55,45.54-27.83,45.78-60.31Z" transform="translate(-697.97 -344.59)"></path>
    <path class="cls-3" d="M1201.44,851.08c0,146.06.33,292.11-.48,438.27a100.1,100.1,0,0,1-11,45.21c-16.58,30.72-56.17,30.15-72.7-.62a85.22,85.22,0,0,1-9.53-38.45q-.77-444.07-.38-888.26v-7.15c1.67-29.39,20.06-52.68,43.49-55.3,21.82-2.29,42.88,17.24,48.88,46.63a124.51,124.51,0,0,1,1.57,26Q1201.49,634.36,1201.44,851.08Z" transform="translate(-697.97 -344.59)"></path><path class="cls-4" d="M1061.91,852.17c0,40.49.38,81,0,121.43-.48,39.78-18.3,64.65-45.21,64.79S971.3,1013.67,971,974q-.85-122.61,0-245.29c0-39.2,19.06-64.93,45.35-65.12s45,25.63,45.45,64.74C1062.29,769.57,1061.91,810.87,1061.91,852.17Z" transform="translate(-697.97 -344.59)"></path><path class="cls-5" d="M1510.56,849.22c0-41.3-.52-82.61,0-123.86.67-37.78,19.58-62.6,45.36-61.93s44.59,26.53,44.78,63.41c.47,82.55,0,165.11,0,247.71a101.32,101.32,0,0,1-3.24,23.44c-6.48,26.54-24.3,42-45.5,40.21s-39-19.82-39.92-46.26c-1.62-47.64-.48-95.27-.48-142.91Z" transform="translate(-697.97 -344.59)"></path><path class="cls-6" d="M788.56,850.65V972.13a108.42,108.42,0,0,1-2.19,28.58c-5.62,20.34-17.39,36.49-40.5,37.54S709.81,1024,703,1003.76a101.83,101.83,0,0,1-4.76-30.35q-.53-121.47,0-242.95a112.09,112.09,0,0,1,3.43-25.78c6.33-26,25.34-42.87,45.2-40.87,21.16,2,39.78,22.49,40.45,48.83,1.24,46,.33,92.08.33,138.15Z" transform="translate(-697.97 -344.59)"></path><path class="cls-7" d="M1463.78,851.55V925.2c-.33,34.3-19,59.31-44.63,60.26s-47.26-23.43-48.5-57.16c-1.43-39.54-.71-79.13-.24-118.72a267.12,267.12,0,0,1,3.86-51.68c5.53-25.92,25.2-42,45.5-40.74,21.86,1.39,42.25,22.87,43.54,49.12,1.38,28.58.28,57.17.28,85.46Z" transform="translate(-697.97 -344.59)"></path><path class="cls-8" d="M1739.42,849.08c0,32.48-20.53,59.4-45.54,60.31s-47.64-27.21-47.64-60.55,20.43-61,46.64-61S1739.66,814.92,1739.42,849.08Z" transform="translate(-697.97 -344.59)"></path></g></g>
</svg> 