<?xml version="1.0" encoding="UTF-8"?>
<svg xmlns="http://www.w3.org/2000/svg" xmlns:xlink="http://www.w3.org/1999/xlink" viewBox="0 0 50 50" version="1.1" fill="#000000"><g id="surface1" fill="#000000"><path style=" " d="M 43.90625 0.96875 C 43.863281 0.976563 43.820313 0.988281 43.78125 1 C 43.316406 1.105469 42.988281 1.523438 43 2 C 43 3.898438 42.121094 4.941406 40.5 5.96875 C 38.878906 6.996094 36.535156 7.828125 34.125 8.84375 C 31.714844 9.859375 29.21875 11.082031 27.28125 13.125 C 25.519531 14.984375 24.296875 17.539063 24.09375 20.96875 C 22.289063 20.832031 21.230469 20.273438 19.96875 19.625 C 18.507813 18.875 16.773438 18 14 18 C 12.289063 18 10.652344 19 9.09375 20.46875 C 7.535156 21.9375 6.027344 23.933594 4.6875 26.25 C 2.007813 30.882813 0 36.738281 0 42 C 0 44.167969 0.539063 46.101563 1.5625 47.5625 C 2.585938 49.023438 4.167969 50 6 50 C 10.832031 50 14.339844 47.558594 17.25 45.28125 C 20.160156 43.003906 22.5 41 25 41 C 27.5 41 29.839844 43.003906 32.75 45.28125 C 35.660156 47.558594 39.167969 50 44 50 C 45.832031 50 47.414063 49.023438 48.4375 47.5625 C 49.460938 46.101563 50 44.167969 50 42 C 50 36.738281 47.992188 30.882813 45.3125 26.25 C 43.972656 23.933594 42.464844 21.9375 40.90625 20.46875 C 39.347656 19 37.710938 18 36 18 C 33.226563 18 31.492188 18.875 30.03125 19.625 C 28.820313 20.246094 27.796875 20.773438 26.125 20.9375 C 26.320313 17.996094 27.300781 16.027344 28.75 14.5 C 30.367188 12.792969 32.578125 11.640625 34.90625 10.65625 C 37.234375 9.671875 39.628906 8.878906 41.5625 7.65625 C 43.496094 6.433594 45 4.601563 45 2 C 45.011719 1.710938 44.894531 1.433594 44.6875 1.238281 C 44.476563 1.039063 44.191406 0.941406 43.90625 0.96875 Z M 14 20 C 16.386719 20 17.570313 20.625 19.03125 21.375 C 20.492188 22.125 22.226563 23 25 23 C 25.097656 23 25.1875 23.003906 25.28125 23 C 25.292969 23 25.300781 23 25.3125 23 C 27.902344 22.9375 29.566406 22.097656 30.96875 21.375 C 32.429688 20.625 33.613281 20 36 20 C 36.867188 20 38.167969 20.625 39.53125 21.90625 C 40.894531 23.1875 42.296875 25.066406 43.5625 27.25 C 46.09375 31.617188 48 37.261719 48 42 C 48 43.832031 47.539063 45.398438 46.8125 46.4375 C 46.085938 47.476563 45.167969 48 44 48 C 39.832031 48 36.839844 45.941406 34 43.71875 C 31.160156 41.496094 28.5 39 25 39 C 21.5 39 18.839844 41.496094 16 43.71875 C 13.160156 45.941406 10.167969 48 6 48 C 4.832031 48 3.914063 47.476563 3.1875 46.4375 C 2.460938 45.398438 2 43.832031 2 42 C 2 37.261719 3.90625 31.617188 6.4375 27.25 C 7.703125 25.066406 9.105469 23.1875 10.46875 21.90625 C 11.832031 20.625 13.132813 20 14 20 Z M 37 27 C 35.894531 27 35 27.894531 35 29 C 35 30.105469 35.894531 31 37 31 C 38.105469 31 39 30.105469 39 29 C 39 27.894531 38.105469 27 37 27 Z M 12 28 L 12 31 L 9 31 L 9 34 L 12 34 L 12 37 L 15 37 L 15 34 L 18 34 L 18 31 L 15 31 L 15 28 Z M 33 31 C 31.894531 31 31 31.894531 31 33 C 31 34.105469 31.894531 35 33 35 C 34.105469 35 35 34.105469 35 33 C 35 31.894531 34.105469 31 33 31 Z M 41 31 C 39.894531 31 39 31.894531 39 33 C 39 34.105469 39.894531 35 41 35 C 42.105469 35 43 34.105469 43 33 C 43 31.894531 42.105469 31 41 31 Z M 37 35 C 35.894531 35 35 35.894531 35 37 C 35 38.105469 35.894531 39 37 39 C 38.105469 39 39 38.105469 39 37 C 39 35.894531 38.105469 35 37 35 Z " fill="#000000"/></g></svg>
