<?xml version="1.0" encoding="utf-8"?>
<svg xmlns="http://www.w3.org/2000/svg" viewBox="0 0 50 50" fill="#000000"><path style="line-height:normal;text-indent:0;text-align:start;text-decoration-line:none;text-decoration-style:solid;text-decoration-color:#000;text-transform:none;block-progression:tb;isolation:auto;mix-blend-mode:normal" d="M 25 6 C 23.833333 6 23.028671 6.3072665 22.542969 6.7929688 C 22.300118 7.0358199 22.155445 7.3071026 22.082031 7.5273438 C 22.008618 7.7475848 22 8 22 8 L 22 17 L 11 17 C 7.1456661 17 4 20.145666 4 24 L 4 30 C 4 36.063407 8.9365932 41 15 41 L 35 41 C 41.063407 41 46 36.063407 46 30 L 46 24 C 46 20.145666 42.854334 17 39 17 L 28 17 L 28 8 C 28 8 27.991382 7.7475848 27.917969 7.5273438 C 27.844555 7.3071026 27.699882 7.0358199 27.457031 6.7929688 C 26.971329 6.3072665 26.166667 6 25 6 z M 25 8 C 25.799111 8 25.971297 8.1720488 26 8.1992188 L 26 17 L 24 17 L 24 8.1992188 C 24.028703 8.1720488 24.200889 8 25 8 z M 11 19 L 39 19 C 41.773666 19 44 21.226334 44 24 L 44 30 C 44 34.982593 39.982593 39 35 39 L 15 39 C 10.017407 39 6 34.982593 6 30 L 6 24 C 6 21.226334 8.2263339 19 11 19 z M 1.0214844 20.986328 A 1.0001 1.0001 0 0 0 0.001953125 22.0625 L 1.0019531 38.0625 A 1.0001 1.0001 0 1 0 2.9980469 37.9375 L 1.9980469 21.9375 A 1.0001 1.0001 0 0 0 1.0214844 20.986328 z M 48.949219 20.986328 A 1.0001 1.0001 0 0 0 48.001953 21.9375 L 47.001953 37.9375 A 1.0001 1.0001 0 1 0 48.998047 38.0625 L 49.998047 22.0625 A 1.0001 1.0001 0 0 0 48.949219 20.986328 z M 23 21 A 1.0001 1.0001 0 1 0 23 23 L 27 23 A 1.0001 1.0001 0 1 0 27 21 L 23 21 z M 4.2285156 37.269531 C 4.0885156 37.810531 4 38.389 4 39 C 4 41.761 5.567 44 7.5 44 C 8.614 44 9.5953281 43.241031 10.236328 42.082031 C 7.7833281 41.112031 5.6885156 39.425531 4.2285156 37.269531 z M 45.771484 37.269531 C 44.311484 39.425531 42.216672 41.112031 39.763672 42.082031 C 40.404672 43.241031 41.386 44 42.5 44 C 44.433 44 46 41.761 46 39 C 46 38.389 45.911484 37.810531 45.771484 37.269531 z" font-weight="400" font-family="sans-serif" white-space="normal" overflow="visible" fill="#000000"/></svg>
