<?xml version="1.0" encoding="utf-8"?>
<svg xmlns="http://www.w3.org/2000/svg" viewBox="0 0 50 50" fill="#000000"><path style="line-height:normal;text-indent:0;text-align:start;text-decoration-line:none;text-decoration-style:solid;text-decoration-color:#000;text-transform:none;block-progression:tb;isolation:auto;mix-blend-mode:normal" d="M 25 6 C 22.034 6 22 7.918 22 8 L 22 16 L 28 16 L 28 8 C 28 7.918 27.966 6 25 6 z M 11 18 C 7.141 18 4 21.141 4 25 L 4 30 C 4 36.065 8.935 41 15 41 L 35 41 C 41.065 41 46 36.065 46 30 L 46 25 C 46 21.141 42.859 18 39 18 L 11 18 z M 1.0214844 20.986328 A 1.0001 1.0001 0 0 0 0.001953125 22.0625 L 1.0019531 38.0625 A 1.0001 1.0001 0 1 0 2.9980469 37.9375 L 1.9980469 21.9375 A 1.0001 1.0001 0 0 0 1.0214844 20.986328 z M 48.949219 20.986328 A 1.0001 1.0001 0 0 0 48.001953 21.9375 L 47.001953 37.9375 A 1.0001 1.0001 0 1 0 48.998047 38.0625 L 49.998047 22.0625 A 1.0001 1.0001 0 0 0 48.949219 20.986328 z M 23 22 L 27 22 C 27.553 22 28 22.447 28 23 C 28 23.553 27.553 24 27 24 L 23 24 C 22.447 24 22 23.553 22 23 C 22 22.447 22.447 22 23 22 z M 4.2285156 37.269531 C 4.0885156 37.810531 4 38.389 4 39 C 4 41.761 5.567 44 7.5 44 C 8.614 44 9.5953281 43.241031 10.236328 42.082031 C 7.7833281 41.112031 5.6885156 39.425531 4.2285156 37.269531 z M 45.771484 37.269531 C 44.311484 39.425531 42.216672 41.112031 39.763672 42.082031 C 40.404672 43.241031 41.386 44 42.5 44 C 44.433 44 46 41.761 46 39 C 46 38.389 45.911484 37.810531 45.771484 37.269531 z" font-weight="400" font-family="sans-serif" white-space="normal" overflow="visible" fill="#000000"/></svg>
