<?xml version="1.0" encoding="UTF-8"?>
<svg xmlns="http://www.w3.org/2000/svg" xmlns:xlink="http://www.w3.org/1999/xlink" viewBox="0 0 50 50" version="1.1" fill="#000000"><g id="surface1" fill="#000000"><path style=" " d="M 5.3125 1 L 5.0625 1.65625 L 2.0625 9.65625 L 2 9.8125 L 2 43 L 13 43 L 13 49 L 20.40625 49 L 20.71875 48.71875 L 26.4375 43 L 35.40625 43 L 35.71875 42.71875 L 48 30.4375 L 48 1 Z M 6.6875 3 L 46 3 L 46 29.59375 L 34.59375 41 L 25.59375 41 L 19.59375 47 L 15 47 L 15 41 L 4 41 L 4 10.1875 Z M 10 5 L 10 35 L 18 35 L 18 42.40625 L 19.71875 40.71875 L 25.4375 35 L 37.40625 35 L 37.71875 34.71875 L 43.71875 28.71875 L 44 28.40625 L 44 5 Z M 12 7 L 42 7 L 42 27.5625 L 36.5625 33 L 24.59375 33 L 24.28125 33.28125 L 20 37.5625 L 20 33 L 12 33 Z M 20 13 L 20 27 L 26 27 L 26 13 Z M 30 13 L 30 27 L 36 27 L 36 13 Z M 22 15 L 24 15 L 24 25 L 22 25 Z M 32 15 L 34 15 L 34 25 L 32 25 Z " fill="#000000"/></g></svg>
