<?xml version="1.0" encoding="UTF-8"?>
<svg xmlns="http://www.w3.org/2000/svg" xmlns:xlink="http://www.w3.org/1999/xlink" viewBox="0 0 50 50" version="1.1" fill="#000000"><g id="surface1" fill="#000000"><path style=" " d="M 12.359375 4 C 11.445313 4 10.648438 4.621094 10.421875 5.507813 L 1.0625 42.511719 C 0.910156 43.109375 1.042969 43.742188 1.421875 44.230469 C 1.800781 44.714844 2.382813 45 3 45 L 8.199219 45 C 9.148438 45 9.964844 44.335938 10.15625 43.40625 L 11.90625 35 L 20.09375 35 L 21.84375 43.40625 C 22.035156 44.335938 22.851563 45 23.800781 45 L 29 45 C 29.617188 45 30.199219 44.714844 30.578125 44.230469 C 30.9375 43.769531 31.066406 43.171875 30.953125 42.605469 C 32.363281 44.125 34.40625 44.980469 36.78125 44.980469 C 38.195313 44.980469 39.722656 44.691406 41.34375 44.121094 C 41.414063 44.226563 41.496094 44.324219 41.589844 44.417969 C 41.964844 44.789063 42.472656 45 43 45 L 43.011719 45 L 47.011719 44.980469 C 48.109375 44.972656 48.996094 44.082031 49 42.980469 C 49 42.882813 49.011719 33.070313 49 30.988281 L 49 30.902344 C 48.988281 27.910156 48.964844 22.90625 45.109375 20.335938 C 43.757813 19.433594 41.957031 18.957031 39.90625 18.957031 C 36.449219 18.957031 32.671875 20.246094 29.800781 22.402344 C 29.347656 22.738281 29.058594 23.253906 29.007813 23.816406 C 28.957031 24.382813 29.144531 24.941406 29.53125 25.355469 C 29.894531 25.753906 32.144531 27.980469 32.59375 28.421875 C 32.980469 28.804688 33.488281 29 34 29 C 34.386719 29 34.769531 28.890625 35.109375 28.664063 C 36.121094 27.992188 38.058594 27 39 27 C 39.816406 27 40.597656 27 40.886719 29.003906 C 40.746094 29.003906 40.605469 29.003906 40.460938 29.003906 C 38.082031 29.003906 32.507813 29.003906 30.242188 32.785156 C 29.722656 33.652344 29.378906 34.59375 29.179688 35.550781 L 21.578125 5.507813 C 21.351563 4.621094 20.554688 4 19.640625 4 Z M 12.359375 6 L 19.640625 6 L 29 43 L 23.800781 43 L 21.71875 33 L 10.28125 33 L 8.199219 43 L 3 43 Z M 16 10 L 11 28 L 21 28 Z M 16 17.472656 L 18.371094 26 L 13.628906 26 Z M 39.90625 20.957031 C 41.5 20.957031 42.9375 21.289063 44 22 C 47 24 46.988281 28.183594 47 31 C 47.011719 33.101563 47 42.980469 47 42.980469 L 43 43 L 43 41.230469 C 40.550781 42.464844 38.476563 42.980469 36.78125 42.980469 C 31.273438 42.980469 29.710938 37.566406 31.957031 33.8125 C 33.496094 31.242188 37.527344 31 40.460938 31 C 41.132813 31 41.746094 31.015625 42.257813 31.015625 C 42.539063 31.015625 42.789063 31.007813 43 31 C 43 26.996094 42 25 39 25 C 37 25 34 27 34 27 C 34 27 31.355469 24.382813 31 24 C 33.582031 22.0625 37 20.960938 39.90625 20.957031 Z M 40 34 C 38.5 34 37.214844 33.96875 36.097656 34.289063 C 35.542969 34.449219 34.992188 34.71875 34.59375 35.203125 C 34.191406 35.6875 34 36.332031 34 37 C 34 38.257813 34.742188 39.324219 35.71875 39.703125 C 36.699219 40.085938 37.761719 39.96875 38.777344 39.640625 C 39.792969 39.308594 40.78125 38.742188 41.566406 37.972656 C 42.355469 37.207031 42.972656 36.199219 43 35.027344 L 43.027344 34 Z M 40 36 L 40.457031 36 C 40.335938 36.183594 40.359375 36.363281 40.171875 36.542969 C 39.640625 37.058594 38.882813 37.503906 38.160156 37.734375 C 37.441406 37.96875 36.765625 37.96875 36.445313 37.84375 C 36.125 37.714844 36 37.65625 36 37 C 36 36.667969 36.058594 36.5625 36.125 36.484375 C 36.195313 36.40625 36.332031 36.300781 36.652344 36.210938 C 37.285156 36.03125 38.5 36 40 36 Z " fill="#000000"/></g></svg>
