<?xml version="1.0" encoding="UTF-8"?>
<svg xmlns="http://www.w3.org/2000/svg" xmlns:xlink="http://www.w3.org/1999/xlink" viewBox="0 0 50 50" version="1.1" fill="#000000"><g id="surface1" fill="#000000"><path style=" " d="M 13 9 C 11.355469 9 10 10.355469 10 12 L 10 13 L 7 13 C 5.355469 13 4 14.355469 4 16 L 4 21 L 2 21 C 0.90625 21 0 21.90625 0 23 L 0 27 C 0 28.09375 0.90625 29 2 29 L 4 29 L 4 34 C 4 35.644531 5.355469 37 7 37 L 10 37 L 10 38 C 10 39.644531 11.355469 41 13 41 L 16 41 C 17.644531 41 19 39.644531 19 38 L 19 29 L 31 29 L 31 38 C 31 39.644531 32.355469 41 34 41 L 37 41 C 38.644531 41 40 39.644531 40 38 L 40 37 L 43 37 C 44.644531 37 46 35.644531 46 34 L 46 29 L 48 29 C 49.09375 29 50 28.09375 50 27 L 50 23 C 50 21.90625 49.09375 21 48 21 L 46 21 L 46 16 C 46 14.355469 44.644531 13 43 13 L 40 13 L 40 12 C 40 10.355469 38.644531 9 37 9 L 34 9 C 32.355469 9 31 10.355469 31 12 L 31 21 L 19 21 L 19 12 C 19 10.355469 17.644531 9 16 9 Z M 13 11 L 16 11 C 16.566406 11 17 11.433594 17 12 L 17 38 C 17 38.566406 16.566406 39 16 39 L 13 39 C 12.433594 39 12 38.566406 12 38 L 12 36.167969 C 12.019531 36.058594 12.019531 35.949219 12 35.84375 L 12 14.167969 C 12.019531 14.058594 12.019531 13.949219 12 13.84375 L 12 12 C 12 11.433594 12.433594 11 13 11 Z M 34 11 L 37 11 C 37.566406 11 38 11.433594 38 12 L 38 13.832031 C 37.980469 13.941406 37.980469 14.050781 38 14.15625 L 38 35.832031 C 37.980469 35.941406 37.980469 36.050781 38 36.15625 L 38 38 C 38 38.566406 37.566406 39 37 39 L 34 39 C 33.433594 39 33 38.566406 33 38 L 33 12 C 33 11.433594 33.433594 11 34 11 Z M 7 15 L 10 15 L 10 35 L 7 35 C 6.433594 35 6 34.566406 6 34 L 6 28.167969 C 6.019531 28.058594 6.019531 27.949219 6 27.84375 L 6 22.167969 C 6.019531 22.058594 6.019531 21.949219 6 21.84375 L 6 16 C 6 15.433594 6.433594 15 7 15 Z M 40 15 L 43 15 C 43.566406 15 44 15.433594 44 16 L 44 21.832031 C 43.980469 21.941406 43.980469 22.050781 44 22.15625 L 44 27.832031 C 43.980469 27.941406 43.980469 28.050781 44 28.15625 L 44 34 C 44 34.566406 43.566406 35 43 35 L 40 35 Z M 2 23 L 4 23 L 4 27 L 2 27 Z M 19 23 L 31 23 L 31 27 L 19 27 Z M 46 23 L 48 23 L 48 27 L 46 27 Z " fill="#000000"/></g></svg>
